# xmcd
# 
# Track frame offsets:
#     150
#     11577
#     26647
#     42010
#     54167
#     68605
#     92480
#     106040
#     117892
#     131897
#     150975
#     171370
#     184655
#     202735
# 
# Disc length: 2911
# 
# Revision: 1
# Processed by: cddbd v1.5.2PL0 Copyright (c) Steve Scherf et al.
# Submitted via: fre:ac v1.0.31
# 
DISCID=a20b5d0e
DTITLE=Roots of Rhythm - Turn on  your love light
DYEAR=1999
DGENRE=R&B
TTITLE0=Otis Redding/These Arms of Mine
TTITLE1=Aretha Franklin/Dr. Feelgood
TTITLE2=Ray Charles/The Right Time
TTITLE3=Little Willie John/Fever
TTITLE4=Muddy Waters/Rock Me
TTITLE5=James Brown/Get Up (Sex Machine)
TTITLE6=King Floyd/Groove Me
TTITLE7=Bobby Bland/Turn on Your Love Light
TTITLE8=John Lee Hooker/I'm in the Mood
TTITLE9=Al Green/Here I Am (Come and Take Me)
TTITLE10=Barry White/Can't Get Enough of  Your Love, Baby
TTITLE11=The Stylistics/You Are Everything
TTITLE12=Marvin Gaye/Sexual Healing
TTITLE13=The Staple Singers/Let's Do it Again
EXTD=
EXTT0=
EXTT1=
EXTT2=
EXTT3=
EXTT4=
EXTT5=
EXTT6=
EXTT7=
EXTT8=
EXTT9=
EXTT10=
EXTT11=
EXTT12=
EXTT13=
PLAYORDER=
